<?xml version="1.0" encoding="UTF-8" standalone="no"?>
<!-- Created with Inkscape (http://www.inkscape.org/) -->

<svg
   xmlns:dc="http://purl.org/dc/elements/1.1/"
   xmlns:cc="http://creativecommons.org/ns#"
   xmlns:rdf="http://www.w3.org/1999/02/22-rdf-syntax-ns#"
   xmlns:svg="http://www.w3.org/2000/svg"
   xmlns="http://www.w3.org/2000/svg"
   xmlns:sodipodi="http://sodipodi.sourceforge.net/DTD/sodipodi-0.dtd"
   xmlns:inkscape="http://www.inkscape.org/namespaces/inkscape"
   version="1.1"
   width="1290.146"
   height="1256.1261"
   id="svg2"
   xml:space="preserve"
   inkscape:version="0.48.2 r9819"
   sodipodi:docname="star-icon.svg"
   inkscape:export-filename="/Users/wilsaj/austin-sustainability/app/assets/img/star-icon-equity_and_empowerment.png"
   inkscape:export-xdpi="27.9"
   inkscape:export-ydpi="27.9"><sodipodi:namedview
     pagecolor="#ffffff"
     bordercolor="#666666"
     borderopacity="1"
     objecttolerance="10"
     gridtolerance="10"
     guidetolerance="10"
     inkscape:pageopacity="0"
     inkscape:pageshadow="2"
     inkscape:window-width="721"
     inkscape:window-height="480"
     id="namedview119"
     showgrid="false"
     inkscape:zoom="0.18787923"
     inkscape:cx="432.17027"
     inkscape:cy="628.06305"
     inkscape:window-x="410"
     inkscape:window-y="432"
     inkscape:window-maximized="0"
     inkscape:current-layer="svg2"
     showguides="true"
     inkscape:guide-bbox="true" /><metadata
     id="metadata8"><rdf:RDF><cc:Work
         rdf:about=""><dc:format>image/svg+xml</dc:format><dc:type
           rdf:resource="http://purl.org/dc/dcmitype/StillImage" /><dc:title></dc:title></cc:Work></rdf:RDF></metadata><defs
     id="defs6"><clipPath
       id="clipPath16"><path
         d="m 0,956.72 980.82,0 L 980.82,0 0,0 0,956.72 z"
         id="path18" /></clipPath><clipPath
       id="clipPath24"><path
         d="M -1.2207e-4,956.72 980.82,956.72 980.82,0 -1.2207e-4,0 l 0,956.72 z"
         id="path26" /></clipPath><clipPath
       id="clipPath28"><path
         d="m 9.77051,943.948 961.27949,0 0,-937.17749 -961.27949,0 0,937.17749 z"
         id="path30" /></clipPath><clipPath
       id="clipPath452"><path
         d="m 9.77051,943.948 961.27949,0 0,-937.17749 -961.27949,0 0,937.17749 z"
         id="path454" /></clipPath></defs><path
     inkscape:connector-curvature="0"
     style="fill:#ffffff;fill-opacity:1;stroke:#ffffff;stroke-width:60.14399719;stroke-linejoin:round;stroke-miterlimit:11.39999962;stroke-opacity:1;stroke-dasharray:none"
     id="path3094"
     d="M 919.28383,1225.4287 371.9196,1226.0944 30.121613,799.75953 151.27073,267.46285 644.13919,30.034655 1137.587,266.26322 1260.0379,798.26361 z" /><g
     id="g450"
     style="fill:#cccccc"
     transform="matrix(0,-1.25,-1.25,0,1238.0439,1244.8598)" /><g
     transform="matrix(1.25,0,0,-1.25,30.832013,1226.0461)"
     id="g456"
     style="fill:#f2e168;fill-opacity:1"
     inkscape:export-filename="/Users/wilsaj/austin-sustainability/app/assets/img/star-icon-home.png"
     inkscape:export-xdpi="27.9"
     inkscape:export-ydpi="27.9"><g
       clip-path="url(#clipPath452)"
       id="g458"
       style="fill:#f2e168;fill-opacity:1"><g
         transform="translate(174.4849,421.2178)"
         id="g460"
         style="fill:#f2e168;fill-opacity:1"><path
           d="m 0,0 -156.205,-75.223 173.374,0 L 0,0 z"
           id="path462"
           style="fill:#f2e168;fill-opacity:1;fill-rule:nonzero;stroke:none"
           inkscape:connector-curvature="0" /></g><g
         transform="translate(156.8623,529.8857)"
         id="g464"
         style="fill:#f2e168;fill-opacity:1"><path
           d="M 0,0 22.494,-98.553 154.102,-35.172 63.026,79.033 0,0 z"
           id="path466"
           style="fill:#f2e168;fill-opacity:1;fill-rule:nonzero;stroke:none"
           inkscape:connector-curvature="0" /></g><g
         transform="translate(15.2432,352.3018)"
         id="g468"
         style="fill:#f2e168;fill-opacity:1"><path
           d="M 0,0 157.644,75.916 136.037,170.584 0,0 z"
           id="path470"
           style="fill:#f2e168;fill-opacity:1;fill-rule:nonzero;stroke:none"
           inkscape:connector-curvature="0" /></g><g
         transform="translate(278.9414,682.9678)"
         id="g472"
         style="fill:#f2e168;fill-opacity:1"><path
           d="m 0,0 131.607,-63.379 32.505,142.412 -101.086,0 L 0,0 z"
           id="path474"
           style="fill:#f2e168;fill-opacity:1;fill-rule:nonzero;stroke:none"
           inkscape:connector-curvature="0" /></g><g
         transform="translate(224.3652,614.5322)"
         id="g476"
         style="fill:#f2e168;fill-opacity:1"><path
           d="M 0,0 93.067,-116.703 166.46,-81.361 184.586,-1.943 50.1,62.822 0,0 z"
           id="path478"
           style="fill:#f2e168;fill-opacity:1;fill-rule:nonzero;stroke:none"
           inkscape:connector-curvature="0" /></g><g
         transform="translate(450.2334,762.001)"
         id="g480"
         style="fill:#f2e168;fill-opacity:1"><path
           d="m 0,0 -33.216,-145.527 73.393,-35.344 73.392,35.344 L 80.354,0 0,0 z"
           id="path482"
           style="fill:#f2e168;fill-opacity:1;fill-rule:nonzero;stroke:none"
           inkscape:connector-curvature="0" /></g><g
         transform="translate(193.252,338.9951)"
         id="g484"
         style="fill:#f2e168;fill-opacity:1"><path
           d="M 0,0 -174.971,0 21.606,-94.668 0,0 z"
           id="path486"
           style="fill:#f2e168;fill-opacity:1;fill-rule:nonzero;stroke:none"
           inkscape:connector-curvature="0" /></g><g
         transform="translate(581.4863,155.4893)"
         id="g488"
         style="fill:#f2e168;fill-opacity:1"><path
           d="M 0,0 -91.076,114.205 -182.152,0 -91.076,-43.859 0,0 z"
           id="path490"
           style="fill:#f2e168;fill-opacity:1;fill-rule:nonzero;stroke:none"
           inkscape:connector-curvature="0" /></g><g
         transform="translate(757.8955,240.4434)"
         id="g492"
         style="fill:#f2e168;fill-opacity:1"><path
           d="m 0,0 22.493,98.552 -146.073,0 L -91.076,-43.86 0,0 z"
           id="path494"
           style="fill:#f2e168;fill-opacity:1;fill-rule:nonzero;stroke:none"
           inkscape:connector-curvature="0" /></g><g
         transform="translate(314.001,196.583)"
         id="g496"
         style="fill:#f2e168;fill-opacity:1"><path
           d="m 0,0 32.504,142.412 -146.073,0 L -91.076,43.86 0,0 z"
           id="path498"
           style="fill:#f2e168;fill-opacity:1;fill-rule:nonzero;stroke:none"
           inkscape:connector-curvature="0" /></g><g
         transform="translate(485.9336,275.3076)"
         id="g500"
         style="fill:#f2e168;fill-opacity:1"><path
           d="m 0,0 -50.788,63.688 -81.461,0 -33.215,-145.528 72.396,-34.863 L 0,0 z"
           id="path502"
           style="fill:#f2e168;fill-opacity:1;fill-rule:nonzero;stroke:none"
           inkscape:connector-curvature="0" /></g><g
         transform="translate(660.3506,193.4678)"
         id="g504"
         style="fill:#f2e168;fill-opacity:1"><path
           d="m 0,0 -33.215,145.527 -81.461,0 L -165.464,81.84 -72.396,-34.863 0,0 z"
           id="path506"
           style="fill:#f2e168;fill-opacity:1;fill-rule:nonzero;stroke:none"
           inkscape:connector-curvature="0" /></g><g
         transform="translate(180.9536,424.335)"
         id="g508"
         style="fill:#f2e168;fill-opacity:1"><path
           d="m 0,0 17.88,-78.34 149.269,0 L 185.276,1.078 134.487,64.765 0,0 z"
           id="path510"
           style="fill:#f2e168;fill-opacity:1;fill-rule:nonzero;stroke:none"
           inkscape:connector-curvature="0" /></g><g
         transform="translate(388.833,524.4434)"
         id="g512"
         style="fill:#f2e168;fill-opacity:1"><path
           d="M 0,0 -66.924,-32.229 -20.611,-90.302 0,0 z"
           id="path514"
           style="fill:#f2e168;fill-opacity:1;fill-rule:nonzero;stroke:none"
           inkscape:connector-curvature="0" /></g><g
         transform="translate(371.8115,418.4131)"
         id="g516"
         style="fill:#f2e168;fill-opacity:1"><path
           d="m 0,0 -16.529,-72.418 74.281,0 L 0,0 z"
           id="path518"
           style="fill:#f2e168;fill-opacity:1;fill-rule:nonzero;stroke:none"
           inkscape:connector-curvature="0" /></g><g
         transform="translate(398.8916,537.0566)"
         id="g520"
         style="fill:#f2e168;fill-opacity:1"><path
           d="M 0,0 83.452,40.188 16.528,72.417 0,0 z"
           id="path522"
           style="fill:#f2e168;fill-opacity:1;fill-rule:nonzero;stroke:none"
           inkscape:connector-curvature="0" /></g><g
         transform="translate(607.0166,427.1416)"
         id="g524"
         style="fill:#f2e168;fill-opacity:1"><path
           d="m 0,0 -23.095,101.186 -93.511,45.033 -93.512,-45.033 L -233.213,0 l 64.713,-81.146 103.787,0 L 0,0 z"
           id="path526"
           style="fill:#f2e168;fill-opacity:1;fill-rule:nonzero;stroke:none"
           inkscape:connector-curvature="0" /></g><g
         transform="translate(536.7217,338.9951)"
         id="g528"
         style="fill:#f2e168;fill-opacity:1"><path
           d="M 0,0 -92.623,0 -46.312,-58.074 0,0 z"
           id="path530"
           style="fill:#f2e168;fill-opacity:1;fill-rule:nonzero;stroke:none"
           inkscape:connector-curvature="0" /></g><g
         transform="translate(609.0088,418.4131)"
         id="g532"
         style="fill:#f2e168;fill-opacity:1"><path
           d="m 0,0 -57.752,-72.418 74.281,0 L 0,0 z"
           id="path534"
           style="fill:#f2e168;fill-opacity:1;fill-rule:nonzero;stroke:none"
           inkscape:connector-curvature="0" /></g><g
         transform="translate(781.9863,345.9951)"
         id="g536"
         style="fill:#f2e168;fill-opacity:1"><path
           d="M 0,0 17.88,78.34 -116.606,143.104 -167.396,79.418 -149.269,0 0,0 z"
           id="path538"
           style="fill:#f2e168;fill-opacity:1;fill-rule:nonzero;stroke:none"
           inkscape:connector-curvature="0" /></g><g
         transform="translate(706.3555,677.3545)"
         id="g540"
         style="fill:#f2e168;fill-opacity:1"><path
           d="m 0,0 -134.486,-64.766 18.126,-79.418 73.392,-35.341 L 50.1,-62.822 0,0 z"
           id="path542"
           style="fill:#f2e168;fill-opacity:1;fill-rule:nonzero;stroke:none"
           inkscape:connector-curvature="0" /></g><g
         transform="translate(537.7666,762.001)"
         id="g544"
         style="fill:#f2e168;fill-opacity:1"><path
           d="M 0,0 32.505,-142.412 164.112,-79.033 101.086,0 0,0 z"
           id="path546"
           style="fill:#f2e168;fill-opacity:1;fill-rule:nonzero;stroke:none"
           inkscape:connector-curvature="0" /></g><g
         transform="translate(658.9111,492.2148)"
         id="g548"
         style="fill:#f2e168;fill-opacity:1"><path
           d="M 0,0 -66.924,32.229 -46.313,-58.073 0,0 z"
           id="path550"
           style="fill:#f2e168;fill-opacity:1;fill-rule:nonzero;stroke:none"
           inkscape:connector-curvature="0" /></g><g
         transform="translate(498.4766,577.2451)"
         id="g552"
         style="fill:#f2e168;fill-opacity:1"><path
           d="M 0,0 83.452,-40.188 66.924,32.229 0,0 z"
           id="path554"
           style="fill:#f2e168;fill-opacity:1;fill-rule:nonzero;stroke:none"
           inkscape:connector-curvature="0" /></g><g
         transform="translate(787.5684,338.9951)"
         id="g556"
         style="fill:#f2e168;fill-opacity:1"><path
           d="M 0,0 -21.606,-94.668 174.972,0 0,0 z"
           id="path558"
           style="fill:#f2e168;fill-opacity:1;fill-rule:nonzero;stroke:none"
           inkscape:connector-curvature="0" /></g><g
         transform="translate(318.8711,186.4678)"
         id="g560"
         style="fill:#f2e168;fill-opacity:1"><path
           d="M 0,0 -38.579,-169.025 69.518,-33.477 0,0 z"
           id="path562"
           style="fill:#f2e168;fill-opacity:1;fill-rule:nonzero;stroke:none"
           inkscape:connector-curvature="0" /></g><g
         transform="translate(394.8574,149.876)"
         id="g564"
         style="fill:#f2e168;fill-opacity:1"><path
           d="M 0,0 -109.093,-136.799 87.486,-42.131 0,0 z"
           id="path566"
           style="fill:#f2e168;fill-opacity:1;fill-rule:nonzero;stroke:none"
           inkscape:connector-curvature="0" /></g><g
         transform="translate(490.4102,103.8604)"
         id="g568"
         style="fill:#f2e168;fill-opacity:1"><path
           d="m 0,0 -201.608,-97.09 403.216,0 L 0,0 z"
           id="path570"
           style="fill:#f2e168;fill-opacity:1;fill-rule:nonzero;stroke:none"
           inkscape:connector-curvature="0" /></g><g
         transform="translate(9.7705,356.665)"
         id="g572"
         style="fill:#f2e168;fill-opacity:1"><path
           d="M 0,0 139.518,174.949 89.725,393.107 0,0 z"
           id="path574"
           style="fill:#f2e168;fill-opacity:1;fill-rule:nonzero;stroke:none"
           inkscape:connector-curvature="0" /></g><g
         transform="translate(585.9629,149.876)"
         id="g576"
         style="fill:#f2e168;fill-opacity:1"><path
           d="M 0,0 -87.486,-42.131 109.093,-136.799 0,0 z"
           id="path578"
           style="fill:#f2e168;fill-opacity:1;fill-rule:nonzero;stroke:none"
           inkscape:connector-curvature="0" /></g><g
         transform="translate(312.4033,189.584)"
         id="g580"
         style="fill:#f2e168;fill-opacity:1"><path
           d="M 0,0 -87.486,42.13 -38.936,-170.585 0,0 z"
           id="path582"
           style="fill:#f2e168;fill-opacity:1;fill-rule:nonzero;stroke:none"
           inkscape:connector-curvature="0" /></g><g
         transform="translate(216.8506,235.5986)"
         id="g584"
         style="fill:#f2e168;fill-opacity:1"><path
           d="M 0,0 -201.607,97.09 49.793,-218.156 0,0 z"
           id="path586"
           style="fill:#f2e168;fill-opacity:1;fill-rule:nonzero;stroke:none"
           inkscape:connector-curvature="0" /></g><g
         transform="translate(829.54,522.8857)"
         id="g588"
         style="fill:#f2e168;fill-opacity:1"><path
           d="M 0,0 -21.607,-94.668 136.037,-170.584 0,0 z"
           id="path590"
           style="fill:#f2e168;fill-opacity:1;fill-rule:nonzero;stroke:none"
           inkscape:connector-curvature="0" /></g><g
         transform="translate(881.3252,749.7725)"
         id="g592"
         style="fill:#f2e168;fill-opacity:1"><path
           d="M 0,0 -49.793,-218.158 89.725,-393.107 0,0 z"
           id="path594"
           style="fill:#f2e168;fill-opacity:1;fill-rule:nonzero;stroke:none"
           inkscape:connector-curvature="0" /></g><g
         transform="translate(755.9033,231.7139)"
         id="g596"
         style="fill:#f2e168;fill-opacity:1"><path
           d="M 0,0 -87.486,-42.13 -48.551,-212.715 0,0 z"
           id="path598"
           style="fill:#f2e168;fill-opacity:1;fill-rule:nonzero;stroke:none"
           inkscape:connector-curvature="0" /></g><g
         transform="translate(661.9492,186.4678)"
         id="g600"
         style="fill:#f2e168;fill-opacity:1"><path
           d="M 0,0 -69.518,-33.477 38.579,-169.025 0,0 z"
           id="path602"
           style="fill:#f2e168;fill-opacity:1;fill-rule:nonzero;stroke:none"
           inkscape:connector-curvature="0" /></g><g
         transform="translate(763.9697,235.5986)"
         id="g604"
         style="fill:#f2e168;fill-opacity:1"><path
           d="M 0,0 -49.793,-218.156 201.607,97.09 0,0 z"
           id="path606"
           style="fill:#f2e168;fill-opacity:1;fill-rule:nonzero;stroke:none"
           inkscape:connector-curvature="0" /></g><g
         transform="translate(760.9316,608.9189)"
         id="g608"
         style="fill:#f2e168;fill-opacity:1"><path
           d="M 0,0 -91.075,-114.205 40.532,-177.586 63.026,-79.033 0,0 z"
           id="path610"
           style="fill:#f2e168;fill-opacity:1;fill-rule:nonzero;stroke:none"
           inkscape:connector-curvature="0" /></g><g
         transform="translate(760.9316,620.1455)"
         id="g612"
         style="fill:#f2e168;fill-opacity:1"><path
           d="M 0,0 108.097,135.549 -48.107,60.324 0,0 z"
           id="path614"
           style="fill:#f2e168;fill-opacity:1;fill-rule:nonzero;stroke:none"
           inkscape:connector-curvature="0" /></g><g
         transform="translate(708.3477,686.083)"
         id="g616"
         style="fill:#f2e168;fill-opacity:1"><path
           d="m 0,0 157.644,75.918 -218.186,0 L 0,0 z"
           id="path618"
           style="fill:#f2e168;fill-opacity:1;fill-rule:nonzero;stroke:none"
           inkscape:connector-curvature="0" /></g><g
         transform="translate(642.2236,769.001)"
         id="g620"
         style="fill:#f2e168;fill-opacity:1"><path
           d="M 0,0 223.767,0 -139.517,174.947 0,0 z"
           id="path622"
           style="fill:#f2e168;fill-opacity:1;fill-rule:nonzero;stroke:none"
           inkscape:connector-curvature="0" /></g><g
         transform="translate(874.501,751.3291)"
         id="g624"
         style="fill:#f2e168;fill-opacity:1"><path
           d="M 0,0 -109.093,-136.797 -48.551,-212.715 0,0 z"
           id="path626"
           style="fill:#f2e168;fill-opacity:1;fill-rule:nonzero;stroke:none"
           inkscape:connector-curvature="0" /></g><g
         transform="translate(806.335,421.2178)"
         id="g628"
         style="fill:#f2e168;fill-opacity:1"><path
           d="m 0,0 -17.169,-75.223 173.374,0 L 0,0 z"
           id="path630"
           style="fill:#f2e168;fill-opacity:1;fill-rule:nonzero;stroke:none"
           inkscape:connector-curvature="0" /></g><g
         transform="translate(536.1689,769.001)"
         id="g632"
         style="fill:#f2e168;fill-opacity:1"><path
           d="M 0,0 97.102,0 -38.935,170.583 0,0 z"
           id="path634"
           style="fill:#f2e168;fill-opacity:1;fill-rule:nonzero;stroke:none"
           inkscape:connector-curvature="0" /></g><g
         transform="translate(451.8311,769.001)"
         id="g636"
         style="fill:#f2e168;fill-opacity:1"><path
           d="M 0,0 77.158,0 38.579,169.026 0,0 z"
           id="path638"
           style="fill:#f2e168;fill-opacity:1;fill-rule:nonzero;stroke:none"
           inkscape:connector-curvature="0" /></g><g
         transform="translate(154.8701,538.6143)"
         id="g640"
         style="fill:#f2e168;fill-opacity:1"><path
           d="M 0,0 60.542,75.918 -48.551,212.715 0,0 z"
           id="path642"
           style="fill:#f2e168;fill-opacity:1;fill-rule:nonzero;stroke:none"
           inkscape:connector-curvature="0" /></g><g
         transform="translate(219.8887,620.1455)"
         id="g644"
         style="fill:#f2e168;fill-opacity:1"><path
           d="M 0,0 48.107,60.324 -108.097,135.549 0,0 z"
           id="path646"
           style="fill:#f2e168;fill-opacity:1;fill-rule:nonzero;stroke:none"
           inkscape:connector-curvature="0" /></g><g
         transform="translate(272.4727,686.083)"
         id="g648"
         style="fill:#f2e168;fill-opacity:1"><path
           d="m 0,0 60.542,75.918 -218.186,0 L 0,0 z"
           id="path650"
           style="fill:#f2e168;fill-opacity:1;fill-rule:nonzero;stroke:none"
           inkscape:connector-curvature="0" /></g><g
         transform="translate(444.6514,769.001)"
         id="g652"
         style="fill:#f2e168;fill-opacity:1"><path
           d="M 0,0 38.935,170.583 -97.102,0 0,0 z"
           id="path654"
           style="fill:#f2e168;fill-opacity:1;fill-rule:nonzero;stroke:none"
           inkscape:connector-curvature="0" /></g><g
         transform="translate(338.5967,769.001)"
         id="g656"
         style="fill:#f2e168;fill-opacity:1"><path
           d="M 0,0 139.517,174.947 -223.768,0 0,0 z"
           id="path658"
           style="fill:#f2e168;fill-opacity:1;fill-rule:nonzero;stroke:none"
           inkscape:connector-curvature="0" /></g></g></g></svg>